<svg xmlns="http://www.w3.org/2000/svg" viewBox="0 0 1024 1024">
  <defs>
    <linearGradient id="bg" x1="180" y1="120" x2="850" y2="900" gradientUnits="userSpaceOnUse">
      <stop offset="0" stop-color="#25364d"/>
      <stop offset="1" stop-color="#111827"/>
    </linearGradient>
    <linearGradient id="note" x1="280" y1="230" x2="610" y2="760" gradientUnits="userSpaceOnUse">
      <stop offset="0" stop-color="#7dd3fc"/>
      <stop offset="1" stop-color="#2563eb"/>
    </linearGradient>
    <linearGradient id="arrow" x1="520" y1="500" x2="780" y2="690" gradientUnits="userSpaceOnUse">
      <stop offset="0" stop-color="#fbbf24"/>
      <stop offset="1" stop-color="#f97316"/>
    </linearGradient>
    <filter id="shadow" x="-20%" y="-20%" width="140%" height="150%">
      <feDropShadow dx="0" dy="22" stdDeviation="24" flood-color="#000000" flood-opacity="0.35"/>
    </filter>
  </defs>

  <rect width="1024" height="1024" rx="220" fill="url(#bg)"/>
  <circle cx="290" cy="265" r="120" fill="#ffffff" opacity="0.07"/>
  <circle cx="770" cy="760" r="170" fill="#38bdf8" opacity="0.08"/>

  <g filter="url(#shadow)">
    <path d="M430 255c0-24 18-45 42-49l230-39c32-5 61 20 61 53v363c0 80-69 145-154 145-71 0-129-45-129-101s58-101 129-101c29 0 56 8 78 22V323l-181 31v336c0 80-69 145-154 145-71 0-129-45-129-101s58-101 129-101c29 0 56 8 78 22V255z" fill="url(#note)"/>
    <path d="M430 255c0-24 18-45 42-49l230-39c32-5 61 20 61 53v78L430 354V255z" fill="#bae6fd" opacity="0.45"/>
  </g>

  <g filter="url(#shadow)">
    <path d="M562 503h113v-54c0-16 19-24 30-13l139 139c8 8 8 21 0 29L705 743c-11 11-30 3-30-13v-54H562c-21 0-38-17-38-38v-97c0-21 17-38 38-38z" fill="url(#arrow)"/>
    <path d="M562 503h113v-54c0-16 19-24 30-13l139 139c4 4 6 9 6 15H524v-49c0-21 17-38 38-38z" fill="#fde68a" opacity="0.4"/>
  </g>

  <path d="M197 797c93 63 203 97 315 97 118 0 234-37 329-106" fill="none" stroke="#ffffff" stroke-width="28" stroke-linecap="round" opacity="0.12"/>
</svg>
